<svg id="Capa_1" enable-background="new 0 0 495.178 495.178" height="512" viewBox="0 0 495.178 495.178" width="512" xmlns="http://www.w3.org/2000/svg"><g><path d="m325.113 288.924-195.667-288.924-.211.143c-27.526 18.641-34.728 56.067-16.087 83.592l161.915 239.085 28.029 41.375 46.879-36.016z" fill="#e5e1e5"/></g><path d="m262.686 304.544 36.502-53.9-66.695-98.484-36.503 53.9z" fill="#d7d0d6"/><path d="m366.52.534-.788-.534-195.667 288.924-16.001 28.704 43.695 31.42 22.357-26.229 162.304-239.661c18.425-27.207 11.307-64.199-15.9-82.624z" fill="#efedef"/><g id="XMLID_771_"><g fill="#6cf5c2"><path d="m365.849 311.328c47.18 3.99 84.22 43.54 84.22 91.75 0 50.87-41.23 92.1-92.09 92.1-50.87 0-92.1-41.23-92.1-92.1 0-14.93 3.56-29.03 9.86-41.5l-9.89-14.61c-4.59-6.78-2.82-16 3.96-20.59l60.56-41.01c6.78-4.59 15.99-2.82 20.59 3.96zm44.22 91.75c0-28.77-23.32-52.09-52.09-52.09-28.78 0-52.1 23.32-52.1 52.09 0 28.78 23.32 52.1 52.1 52.1 28.77 0 52.09-23.32 52.09-52.1z"/><path d="m85.109 403.078c0 28.78 23.32 52.1 52.09 52.1 28.78 0 52.1-23.32 52.1-52.1 0-28.77-23.32-52.09-52.1-52.09-28.77 0-52.09 23.32-52.09 52.09zm140.26-76.7c6.78 4.59 8.55 13.81 3.96 20.59l-9.89 14.61c6.3 12.47 9.86 26.57 9.86 41.5 0 50.87-41.23 92.1-92.1 92.1-50.86 0-92.09-41.23-92.09-92.1 0-48.21 37.04-87.76 84.22-91.75l14.89-22c4.6-6.78 13.81-8.55 20.59-3.96z"/></g></g><g><path d="m247.083 239.41c-4.143 0-7.5-3.358-7.5-7.5v-4.745c0-4.142 3.357-7.5 7.5-7.5s7.5 3.358 7.5 7.5v4.745c0 4.142-3.357 7.5-7.5 7.5z" fill="#e5e1e5"/></g></svg>