<?xml version="1.0" encoding="iso-8859-1"?>
<!-- Generator: Adobe Illustrator 19.0.0, SVG Export Plug-In . SVG Version: 6.00 Build 0)  -->
<svg version="1.1" id="Capa_1" xmlns="http://www.w3.org/2000/svg" xmlns:xlink="http://www.w3.org/1999/xlink" x="0px" y="0px"
	 viewBox="0 0 512.108 512.108" style="enable-background:new 0 0 512.108 512.108;" xml:space="preserve">
<path style="fill:#455A64;" d="M469.387,181.441c-1.704-29.56-16.335-56.871-40-74.667c9.301-11.157-0.192-29.76-3.84-36.907
	c-24.572-41.261-68.192-67.457-116.16-69.76c-18.122-0.699-36.214,2.015-53.333,8c-17.119-5.985-35.211-8.699-53.333-8
	c-47.981,2.317-91.603,28.538-116.16,69.824c-3.648,7.168-13.12,25.749-3.84,36.907c-23.648,17.781-38.277,45.065-40,74.603
	c0,15.765,1.408,32.277,11.029,38.784c-10.165,25.431-5.14,54.419,12.992,74.944c5.803,6.549,19.456,21.781,32.597,15.125
	c4.512-2.482,7.709-6.817,8.747-11.861c13.968,13.522,32.531,21.264,51.968,21.675h192c19.434-0.405,37.996-8.139,51.968-21.653
	c1.037,5.044,4.234,9.38,8.747,11.861c13.099,6.677,26.795-8.533,32.597-15.125c18.132-20.525,23.157-49.513,12.992-74.944
	C467.979,213.718,469.387,197.206,469.387,181.441z"/>
<path style="fill:#009688;" d="M512.054,501.441c0,5.891-4.776,10.667-10.667,10.667H10.72c-5.891,0-10.667-4.776-10.667-10.667
	c0.164-57.699,37.999-108.52,93.227-125.227l54.827-19.2c4.027-1.343,8.468-0.17,11.307,2.987
	c14.825,16.493,33.311,29.28,53.973,37.333c6.891,2.706,14.039,4.708,21.333,5.973c7.016,1.459,14.167,2.174,21.333,2.133
	c37.179-0.844,72.274-17.345,96.64-45.44c2.839-3.157,7.279-4.33,11.307-2.987l54.827,19.2
	C474.055,392.921,511.889,443.742,512.054,501.441z"/>
<path id="SVGCleanerId_0" d="M224.054,234.774H202.72c-5.891,0-10.667-4.776-10.667-10.667s4.776-10.667,10.667-10.667h21.333
	c5.891,0,10.667,4.776,10.667,10.667S229.945,234.774,224.054,234.774z"/>
<path id="SVGCleanerId_1" d="M309.387,234.774h-21.333c-5.891,0-10.667-4.776-10.667-10.667s4.776-10.667,10.667-10.667h21.333
	c5.891,0,10.667,4.776,10.667,10.667S315.278,234.774,309.387,234.774z"/>
<path style="fill:#FFE082;" d="M384.054,173.548c0-0.917,0-1.835,0-2.773c0-70.692-57.308-128-128-128s-128,57.308-128,128
	c0,0.917,0,1.856,0,2.773c-15.303,12.086-23.353,31.165-21.333,50.56c0,29.675,13.099,52.224,30.699,53.333
	c19.349,64.256,66.133,106.667,118.635,106.667s99.264-42.453,118.635-106.667c17.6-1.067,30.699-23.616,30.699-53.333
	C407.406,204.713,399.356,185.634,384.054,173.548z"/>
<path style="fill:#F44336;" d="M256.054,341.441c-26.152-3.585-44.91-27.032-42.667-53.333c0-5.891,4.776-10.667,10.667-10.667h64
	c5.891,0,10.667,4.776,10.667,10.667C300.964,314.409,282.206,337.856,256.054,341.441z"/>
<g>
	<path style="fill:#455A64;" d="M181.387,202.774c-5.891,0-10.667-4.775-10.667-10.666c0-2.897,1.178-5.67,3.264-7.68
		c7.723-7.721,17.872-12.543,28.736-13.653c5.891,0,10.667,4.776,10.667,10.667c0,5.891-4.776,10.667-10.667,10.667
		c-5.268,1.213-10.093,3.873-13.931,7.68C186.802,201.704,184.148,202.774,181.387,202.774z"/>
	<path style="fill:#455A64;" d="M330.72,202.774c-2.737,0.006-5.373-1.04-7.36-2.923c-3.826-3.858-8.674-6.544-13.973-7.744
		c-5.891,0-10.667-4.776-10.667-10.667c0-5.891,4.776-10.667,10.667-10.667c10.864,1.11,21.013,5.932,28.736,13.653
		c4.242,4.088,4.366,10.841,0.278,15.082C336.39,201.596,333.618,202.774,330.72,202.774z"/>
</g>
<polygon style="fill:#00796B;" points="213.387,397.334 213.387,512.108 234.72,512.108 234.72,403.308 "/>
<g>
	<path style="fill:#455A64;" d="M352.054,448.108h64c5.891,0,10.667,4.776,10.667,10.667v42.667c0,5.891-4.776,10.667-10.667,10.667
		h-64c-5.891,0-10.667-4.776-10.667-10.667v-42.667C341.387,452.883,346.163,448.108,352.054,448.108z"/>
	<path style="fill:#455A64;" d="M309.387,298.774c-3.357,0-6.519-1.581-8.533-4.267c-5.896-8.281-14.573-14.164-24.448-16.576
		c-4.945,0.014-9.562,2.474-12.331,6.571c-3.703,4.582-10.419,5.295-15.001,1.592s-5.295-10.419-1.592-15.001
		c0.175-0.217,0.358-0.426,0.55-0.628c7.028-9.023,17.921-14.177,29.355-13.888c16.327,2.623,30.924,11.673,40.533,25.131
		c3.535,4.713,2.579,11.399-2.133,14.933C313.941,298.026,311.695,298.774,309.387,298.774z"/>
	<path style="fill:#455A64;" d="M202.72,298.774c-5.891,0-10.667-4.776-10.667-10.667c0-2.308,0.749-4.554,2.133-6.4
		c9.61-13.457,24.207-22.507,40.533-25.131c11.386-0.243,22.225,4.876,29.269,13.824c4.05,4.278,3.865,11.029-0.414,15.079
		c-4.278,4.05-11.029,3.865-15.079-0.414c-0.191-0.202-0.375-0.412-0.55-0.628c-2.777-4.109-7.414-6.571-12.373-6.571
		c-9.853,2.421-18.494,8.333-24.32,16.64C209.239,297.193,206.078,298.774,202.72,298.774z"/>
</g>
<path d="M501.387,512.108H10.72c-5.891,0-10.667-4.776-10.667-10.667c0.23-57.662,37.976-108.457,93.12-125.312l54.869-19.093
	c4.015-1.393,8.473-0.27,11.349,2.859c24.328,28.17,59.449,44.719,96.661,45.547c37.201-0.828,72.313-17.368,96.64-45.525
	c2.876-3.129,7.335-4.252,11.349-2.859l54.869,19.093c55.141,16.851,92.892,67.633,93.141,125.291
	C512.054,507.332,507.278,512.108,501.387,512.108z M21.878,490.774H490.23c-4.864-44.314-35.655-81.472-78.293-94.485
	l-48.405-16.832c-27.987,29.61-66.739,46.671-107.477,47.317c-40.738-0.646-79.491-17.707-107.477-47.317l-48.405,16.832
	C57.529,409.297,26.737,446.458,21.878,490.774z"/>
<g>
	<path id="SVGCleanerId_0_1_" d="M224.054,234.774H202.72c-5.891,0-10.667-4.776-10.667-10.667s4.776-10.667,10.667-10.667h21.333
		c5.891,0,10.667,4.776,10.667,10.667S229.945,234.774,224.054,234.774z"/>
</g>
<g>
	<path id="SVGCleanerId_1_1_" d="M309.387,234.774h-21.333c-5.891,0-10.667-4.776-10.667-10.667s4.776-10.667,10.667-10.667h21.333
		c5.891,0,10.667,4.776,10.667,10.667S315.278,234.774,309.387,234.774z"/>
</g>
<path d="M256.054,384.108c-52.587,0-99.264-42.453-118.635-106.667c-17.6-1.109-30.699-23.659-30.699-53.333
	c-2.019-19.395,6.031-38.474,21.333-50.56c0-0.917,0-1.856,0-2.773c0-70.692,57.308-128,128-128s128,57.308,128,128
	c0,0.917,0,1.856,0,2.773c15.303,12.086,23.353,31.165,21.333,50.56c0,29.675-13.099,52.224-30.699,53.333
	C355.318,341.654,308.64,384.108,256.054,384.108z M144.928,254.358c1.285-0.011,2.561,0.228,3.755,0.704
	c3.231,1.144,5.715,3.771,6.677,7.061c14.912,60.117,55.381,100.651,100.693,100.651s85.781-40.533,100.715-100.651
	c1.415-5.719,7.198-9.208,12.916-7.793c1.066,0.264,2.084,0.69,3.02,1.265c3.563,0.512,11.349-10.795,11.349-31.488
	c1.452-11.649-2.284-23.348-10.219-32h-0.32c-5.862,0.585-11.088-3.693-11.673-9.555c-0.072-0.717-0.07-1.44,0.004-2.157
	l0.299-2.667c0.324-2.305,0.516-4.627,0.576-6.955c0-58.91-47.756-106.667-106.667-106.667s-106.667,47.756-106.667,106.667
	c0.048,2.37,0.233,4.734,0.555,7.083l0.299,2.667c0.302,3.156-0.816,6.284-3.051,8.533c-2.258,2.225-5.374,3.355-8.533,3.093
	l-0.384-0.043c-7.932,8.653-11.668,20.351-10.219,32c0,20.651,8.021,32,10.667,32C140.592,254.97,142.738,254.365,144.928,254.358z"
	/>
<path d="M160.054,320.108c-19.434-0.405-37.996-8.139-51.968-21.653c-1.037,5.044-4.234,9.38-8.747,11.861
	c-13.141,6.656-26.795-8.533-32.597-15.125c-18.132-20.525-23.157-49.513-12.992-74.944c-9.621-6.528-11.029-23.04-11.029-38.805
	c1.704-29.56,16.335-56.871,40-74.667c-9.301-11.157,0.192-29.76,3.84-36.907c24.572-41.261,68.192-67.457,116.16-69.76
	c19.2,0,64,2.133,64,21.333c-0.003,5.891-4.782,10.664-10.673,10.66c-3.619-0.002-6.99-1.839-8.954-4.879
	c-14.398-4.234-29.371-6.185-44.373-5.781c-39.973,2.279-76.285,24.019-97.173,58.176c-2.007,3.727-3.644,7.643-4.885,11.691
	c3.641-0.982,7.172-2.333,10.539-4.032l1.387-0.725c5.298-2.576,11.681-0.37,14.258,4.927c2.48,5.099,0.537,11.247-4.423,13.995
	l-1.323,0.683c-7.723,4.245-57.045,32.619-57.045,75.285c-0.091,5.488,0.265,10.975,1.067,16.405l1.067-1.472
	c3.567-4.689,10.259-5.598,14.948-2.031c4.459,3.392,5.534,9.656,2.46,14.34c-0.32,0.448-0.704,1.024-1.195,1.685
	c-15.986,20.877-15.863,49.914,0.299,70.656c2.133,2.304,3.776,4.075,5.184,5.419c-0.242-5.849-0.992-11.667-2.24-17.387
	c-1.296-5.747,2.313-11.456,8.06-12.751c4.669-1.053,9.468,1.134,11.738,5.349c11.174,20.438,31.498,34.251,54.613,37.12
	c5.891,0,10.667,4.776,10.667,10.667C170.72,315.332,165.945,320.108,160.054,320.108z"/>
<path d="M352.054,320.108c-5.891,0-10.667-4.776-10.667-10.667c0-5.891,4.776-10.667,10.667-10.667
	c23.119-2.857,43.451-16.664,54.635-37.099c2.549-4.653,8.13-6.726,13.099-4.864c4.965,1.861,7.81,7.086,6.677,12.267
	c-1.248,5.72-1.998,11.537-2.24,17.387c1.408-1.344,3.136-3.115,5.184-5.419c16.255-20.595,16.439-49.6,0.448-70.4
	c-0.533-0.725-1.003-1.365-1.323-1.877c-3.423-4.801-2.305-11.468,2.496-14.891c4.801-3.423,11.468-2.305,14.891,2.496l1.067,1.451
	c0.8-5.423,1.157-10.903,1.067-16.384c0-42.667-49.323-71.04-57.088-75.264l-1.323-0.683c-5.153-2.855-7.016-9.347-4.161-14.5
	c2.748-4.96,8.896-6.903,13.996-4.423l1.387,0.725c3.367,1.699,6.898,3.05,10.539,4.032c-1.242-4.048-2.878-7.963-4.885-11.691
	c-20.875-34.153-57.169-55.9-97.131-58.197c-15.002-0.404-29.975,1.547-44.373,5.781c-3.196,4.948-9.799,6.369-14.748,3.172
	c-3.04-1.964-4.877-5.335-4.879-8.954c0-19.2,44.8-21.333,64-21.333c47.981,2.317,91.603,28.538,116.16,69.824
	c3.648,7.168,13.12,25.749,3.84,36.907c23.648,17.781,38.277,45.065,40,74.603c0,15.765-1.408,32.277-11.029,38.784
	c10.165,25.431,5.14,54.419-12.992,74.944c-5.803,6.549-19.499,21.824-32.597,15.125c-4.512-2.482-7.709-6.817-8.747-11.861
	C390.054,311.955,371.49,319.697,352.054,320.108z"/>
<path d="M309.387,298.774c-3.357,0-6.519-1.581-8.533-4.267c-5.896-8.281-14.573-14.164-24.448-16.576
	c-4.945,0.014-9.562,2.474-12.331,6.571c-3.703,4.582-10.419,5.295-15.001,1.592s-5.295-10.419-1.592-15.001
	c0.175-0.217,0.358-0.426,0.55-0.628c7.028-9.023,17.921-14.177,29.355-13.888c16.327,2.623,30.924,11.673,40.533,25.131
	c3.535,4.713,2.579,11.399-2.133,14.933C313.941,298.026,311.695,298.774,309.387,298.774z"/>
<path d="M202.72,298.774c-5.891,0-10.667-4.776-10.667-10.667c0-2.308,0.749-4.554,2.133-6.4
	c9.61-13.457,24.207-22.507,40.533-25.131c11.386-0.243,22.225,4.876,29.269,13.824c4.05,4.278,3.865,11.029-0.414,15.079
	c-4.278,4.05-11.029,3.865-15.079-0.414c-0.191-0.202-0.375-0.412-0.55-0.628c-2.777-4.109-7.414-6.571-12.373-6.571
	c-9.853,2.421-18.494,8.333-24.32,16.64C209.239,297.193,206.078,298.774,202.72,298.774z"/>
<path d="M256.054,341.441c-26.152-3.585-44.91-27.032-42.667-53.333c0-5.891,4.776-10.667,10.667-10.667h64
	c5.891,0,10.667,4.776,10.667,10.667C300.964,314.409,282.206,337.856,256.054,341.441z M236.022,298.774
	c1.554,10.603,9.548,19.116,20.032,21.333c10.484-2.217,18.478-10.73,20.032-21.333H236.022z"/>
<path d="M181.387,202.774c-5.891,0-10.667-4.775-10.667-10.666c0-2.897,1.178-5.67,3.264-7.68
	c7.723-7.721,17.872-12.543,28.736-13.653c5.891,0,10.667,4.776,10.667,10.667c0,5.891-4.776,10.667-10.667,10.667
	c-5.268,1.213-10.093,3.873-13.931,7.68C186.802,201.704,184.148,202.774,181.387,202.774z"/>
<path d="M330.72,202.774c-2.737,0.006-5.373-1.04-7.36-2.923c-3.826-3.858-8.674-6.544-13.973-7.744
	c-5.891,0-10.667-4.776-10.667-10.667c0-5.891,4.776-10.667,10.667-10.667c10.864,1.11,21.013,5.932,28.736,13.653
	c4.242,4.088,4.366,10.841,0.278,15.082C336.39,201.596,333.618,202.774,330.72,202.774z"/>
<path d="M224.054,512.108c-5.891,0-10.667-4.776-10.667-10.667v-85.333c0-5.891,4.776-10.667,10.667-10.667
	c5.891,0,10.667,4.776,10.667,10.667v85.333C234.72,507.332,229.945,512.108,224.054,512.108z"/>
<path d="M416.054,512.108c-5.891,0-10.667-4.776-10.667-10.667v-32H362.72v32c0,5.891-4.776,10.667-10.667,10.667
	s-10.667-4.776-10.667-10.667v-42.667c0-5.891,4.776-10.667,10.667-10.667h64c5.891,0,10.667,4.776,10.667,10.667v42.667
	C426.72,507.332,421.945,512.108,416.054,512.108z"/>
<g>
</g>
<g>
</g>
<g>
</g>
<g>
</g>
<g>
</g>
<g>
</g>
<g>
</g>
<g>
</g>
<g>
</g>
<g>
</g>
<g>
</g>
<g>
</g>
<g>
</g>
<g>
</g>
<g>
</g>
</svg>
