<?xml version="1.0" encoding="iso-8859-1"?>
<!-- Generator: Adobe Illustrator 19.0.0, SVG Export Plug-In . SVG Version: 6.00 Build 0)  -->
<svg version="1.1" id="Capa_1" xmlns="http://www.w3.org/2000/svg" xmlns:xlink="http://www.w3.org/1999/xlink" x="0px" y="0px"
	 viewBox="0 0 512.079 512.079" style="enable-background:new 0 0 512.079 512.079;" xml:space="preserve">
<path style="fill:#757575;" d="M431.122,374.372l-117.333-53.333c-4.044-1.854-8.814-1.004-11.968,2.133l-18.197,18.24h-55.168
	l-18.219-18.219c-3.154-3.137-7.924-3.988-11.968-2.133L80.935,374.393c-5.36,2.44-7.728,8.762-5.291,14.123l53.333,117.333
	c1.74,3.805,5.544,6.24,9.728,6.229h234.667c4.181-0.001,7.976-2.445,9.707-6.251l53.333-117.333
	C438.85,383.134,436.482,376.812,431.122,374.372z"/>
<g>
	<path style="fill:#455A64;" d="M96.039,352.079c-4.902-0.004-9.17-3.348-10.347-8.107c-38.72-156.864-9.152-225.323,11.904-252.16
		c11.982-16.822,31.134-27.081,51.776-27.733c5.891,0,10.667,4.776,10.667,10.667s-4.776,10.667-10.667,10.667
		c-14.084,0.639-27.046,7.871-34.987,19.52c-14.933,19.2-45.845,80.32-8,233.92c1.408,5.72-2.088,11.499-7.808,12.907
		C97.747,351.965,96.895,352.073,96.039,352.079z"/>
	<path style="fill:#455A64;" d="M138.706,330.745c-3.93,0.006-7.545-2.15-9.408-5.611c-45.973-85.333-8.277-174.059-0.235-190.976
		c2.154-5.483,8.344-8.183,13.828-6.029c5.483,2.154,8.183,8.344,6.029,13.828c-0.186,0.473-0.405,0.933-0.657,1.375
		c-26.188,54.216-26.274,117.404-0.235,171.691c2.792,5.187,0.851,11.656-4.336,14.448c-1.552,0.836-3.287,1.273-5.05,1.274H138.706
		z"/>
	<path style="fill:#455A64;" d="M419.026,352.079c-0.863-0.004-1.722-0.112-2.56-0.32c-5.72-1.408-9.216-7.186-7.808-12.907
		c37.845-153.6,7.019-214.741-8-233.92c-7.937-11.643-20.889-18.874-34.965-19.52c-5.891,0-10.667-4.776-10.667-10.667
		s4.776-10.667,10.667-10.667c20.642,0.653,39.794,10.912,51.776,27.733c21.035,26.859,50.581,95.317,11.925,252.181
		C428.207,348.751,423.93,352.087,419.026,352.079z"/>
	<path style="fill:#455A64;" d="M376.338,330.745c-5.891-0.003-10.664-4.781-10.661-10.672c0.001-1.763,0.439-3.498,1.274-5.05
		c26.039-54.287,25.953-117.475-0.235-171.691c-2.913-5.121-1.123-11.633,3.998-14.546c5.121-2.913,11.633-1.123,14.546,3.998
		c0.251,0.442,0.471,0.901,0.657,1.375c8.021,16.917,45.739,105.579-0.235,190.976C383.83,328.575,380.245,330.728,376.338,330.745z
		"/>
</g>
<g>
	<path style="fill:#616161;" d="M148.413,496.996L95.079,379.663c-0.517-1.158-1.24-2.214-2.133-3.115l-10.667-10.667
		c-3.232-3.235-8.166-4.05-12.267-2.027l-24.213,12.011c-14.674,7.378-25.11,21.13-28.267,37.248l-17.28,86.165
		c-1.178,5.772,2.546,11.406,8.318,12.585c0.703,0.143,1.418,0.216,2.136,0.216h128c5.891-0.002,10.665-4.779,10.664-10.67
		C149.369,499.887,149.043,498.382,148.413,496.996z"/>
	<path style="fill:#616161;" d="M494.567,413.156c-3.17-16.169-13.635-29.966-28.352-37.376l-24.107-11.947
		c-4.101-2.024-9.035-1.208-12.267,2.027l-10.667,10.667c-0.893,0.901-1.616,1.956-2.133,3.115l-53.333,117.333
		c-2.451,5.357-0.095,11.687,5.262,14.137c1.382,0.632,2.882,0.962,4.402,0.967h128c5.891,0.001,10.668-4.773,10.669-10.665
		c0-0.717-0.072-1.433-0.215-2.135L494.567,413.156z"/>
</g>
<path style="fill:#757575;" d="M384.039,128.079c0-70.692-57.308-128-128-128s-128,57.308-128,128
	c-0.089,30.214,10.668,59.457,30.315,82.411c-10.697,17.036-17.413,36.265-19.648,56.256c0,29.76,40.32,46.72,61.653,51.563
	c5.747,1.296,11.456-2.312,12.752-8.059c0.173-0.765,0.26-1.547,0.261-2.331v-34.581l42.667-21.333l42.667,21.333v36.075
	c0,5.891,4.776,10.667,10.667,10.667c18.581,0,74.667-18.923,74.667-53.333c-2.906-22.974-11.099-44.961-23.936-64.235
	C375.636,180.797,384.003,154.776,384.039,128.079z"/>
<g>
	<path style="fill:#424242;" d="M248.935,192.676c-28.915-9.376-56.315-22.9-81.344-40.149c-4.159-4.172-10.913-4.183-15.085-0.024
		c-2.066,2.059-3.198,4.874-3.134,7.79c0.832,42.453,28.352,74.453,64,74.453c32.96,0,42.325-20.715,42.667-31.659
		C256.194,198.439,253.32,194.227,248.935,192.676z"/>
	<path style="fill:#424242;" d="M356.306,150.265c-4-1.704-8.634-0.809-11.712,2.261c-25.029,17.25-52.429,30.774-81.344,40.149
		c-4.426,1.514-7.35,5.735-7.211,10.411c0.341,10.965,9.707,31.659,42.667,31.659c35.648,0,63.168-32,64-74.453
		C362.807,155.96,360.278,151.997,356.306,150.265z"/>
</g>
<path style="fill:#9E9E9E;" d="M314.151,257.209l-54.187-27.093c-3.927-1.576-8.405-0.845-11.627,1.899l-50.411,25.195
	c-3.609,1.808-5.888,5.499-5.888,9.536v64c-0.005,2.831,1.115,5.548,3.115,7.552l21.333,21.333c2.004,1.999,4.721,3.12,7.552,3.115
	h64c2.831,0.005,5.548-1.115,7.552-3.115l21.333-21.333c1.999-2.004,3.12-4.721,3.115-7.552v-64
	C320.039,262.709,317.76,259.018,314.151,257.209z"/>
<path d="M501.373,512.079H10.706c-5.891,0.001-10.668-4.773-10.669-10.664c0-0.717,0.072-1.433,0.216-2.136l17.237-86.208
	c3.176-16.16,13.685-29.926,28.437-37.248l24-11.989c4.107-2.05,9.065-1.242,12.309,2.005l5.44,5.44l110.613-50.261
	c4.044-1.854,8.814-1.004,11.968,2.133l18.219,18.219h55.168l18.219-18.219c3.154-3.137,7.924-3.988,11.968-2.133l110.571,50.261
	l5.44-5.44c3.244-3.247,8.202-4.055,12.309-2.005l24,12.011c14.752,7.322,25.261,21.088,28.437,37.248l17.237,86.187
	c1.178,5.772-2.546,11.406-8.318,12.585C502.805,512.007,502.09,512.079,501.373,512.079z M23.719,490.745h464.64l-14.72-73.451
	c-1.918-9.689-8.222-17.94-17.067-22.336l-17.067-8.533l-5.227,5.227c-3.154,3.137-7.924,3.988-11.968,2.133l-110.635-50.24
	l-16.107,16.107c-2.003,1.986-4.71,3.098-7.531,3.093h-64c-2.831,0.005-5.548-1.115-7.552-3.115l-16.085-16.085l-110.613,50.24
	c-4.044,1.854-8.814,1.004-11.968-2.133l-5.248-5.269l-17.067,8.533c-8.844,4.396-15.149,12.647-17.067,22.336L23.719,490.745z"/>
<path d="M138.706,512.079c-4.189,0.007-7.994-2.438-9.728-6.251L75.645,388.495c-2.318-5.416,0.192-11.685,5.608-14.004
	c5.244-2.245,11.327,0.034,13.805,5.172l53.333,117.333c2.439,5.362,0.069,11.687-5.294,14.126
	C141.718,511.749,140.221,512.075,138.706,512.079z"/>
<path d="M373.373,512.079c-5.891-0.002-10.665-4.779-10.664-10.67c0-1.523,0.327-3.027,0.957-4.413l53.333-117.333
	c2.318-5.416,8.588-7.926,14.004-5.608s7.926,8.588,5.608,14.004c-0.063,0.147-0.129,0.292-0.198,0.436l-53.333,117.333
	C381.348,509.634,377.554,512.078,373.373,512.079z"/>
<path d="M288.039,362.745h-64c-2.831,0.005-5.548-1.115-7.552-3.115l-21.333-21.333c-1.999-2.004-3.12-4.721-3.115-7.552v-14.699
	c-23.957-7.339-53.333-24.533-53.333-49.301c2.209-19.968,8.888-39.181,19.541-56.213c-9.099-10.747-16.365-22.921-21.504-36.032
	c-14.343,46.567-10.281,96.861,11.349,140.523c2.798,5.19,0.859,11.666-4.331,14.464c-5.19,2.798-11.666,0.859-14.464-4.331
	c-44.608-82.859-10.453-168.768-1.024-189.269c-0.235-2.603-0.235-5.205-0.235-7.808c-0.014-13.386,2.081-26.69,6.208-39.424
	c-7.851,3.722-14.67,9.311-19.861,16.277c-14.933,19.2-45.845,80.32-8,233.92c1.414,5.72-2.077,11.503-7.797,12.917
	c-5.72,1.414-11.504-2.077-12.917-7.797c-38.699-156.864-9.131-225.323,11.925-252.16c11.185-15.538,28.469-25.565,47.509-27.563
	c35.22-61.294,113.461-82.431,174.755-47.21c19.578,11.25,35.832,27.479,47.112,47.04c20.207,1.051,38.83,11.262,50.581,27.733
	c21.035,26.859,50.581,95.317,11.925,252.181c-1.414,5.72-7.197,9.211-12.917,7.797c-5.72-1.414-9.211-7.197-7.797-12.917
	c37.845-153.6,7.019-214.741-8-233.92c-5.867-8.019-13.96-14.139-23.275-17.6c4.379,13.13,6.591,26.885,6.549,40.725
	c0,1.088,0,2.133,0,3.221c0.813,0.838,1.484,1.804,1.984,2.859c8.021,16.917,45.739,105.579-0.235,190.976
	c-2.798,5.19-9.274,7.129-14.464,4.331c-5.19-2.798-7.129-9.274-4.331-14.464c5.64-10.504,10.077-21.611,13.227-33.109
	c-14.446,19.713-36.059,32.96-60.181,36.885v11.968c0.005,2.831-1.115,5.548-3.115,7.552l-21.333,21.333
	C293.587,361.63,290.87,362.75,288.039,362.745z M228.455,341.412h55.168l15.083-15.083v-52.992l-15.445-7.701
	c-5.272-2.633-7.412-9.042-4.779-14.315c2.633-5.273,9.042-7.412,14.315-4.779l21.333,10.667c3.617,1.802,5.905,5.495,5.909,9.536
	v30.293c17.28-4.523,42.667-17.344,42.667-30.293c-3.081-18.507-9.952-36.177-20.181-51.904
	c-11.086,12.598-27.037,19.844-43.819,19.904c-32.96,0-42.325-20.715-42.667-31.659l0,0c-0.341,10.965-9.707,31.659-42.667,31.659
	c-13.436,0.011-26.454-4.675-36.8-13.248c-8.514,13.81-14.138,29.203-16.533,45.248c0,9.728,15.104,20.459,32,26.816v-26.816
	c0-4.037,2.279-7.728,5.888-9.536l21.333-10.667c5.272-2.633,11.681-0.494,14.315,4.779c2.633,5.272,0.494,11.681-4.779,14.315
	l-15.424,7.701v52.992L228.455,341.412z M360.082,202.553c12.097,18.901,20.247,40.054,23.957,62.187
	c4.941-31.723,2.54-64.156-7.019-94.805C372.973,181.566,367.268,192.552,360.082,202.553z M281.149,208.783
	c5.141,3.528,11.346,5.164,17.557,4.629c17.736-0.772,33.021-12.731,38.037-29.76c-17.941,9.612-36.507,18.008-55.573,25.131
	H281.149z M175.335,183.652c5.016,17.029,20.301,28.988,38.037,29.76c6.202,0.542,12.398-1.103,17.515-4.651
	C211.827,201.65,193.267,193.261,175.335,183.652z M160.039,149.412c2.831-0.005,5.548,1.115,7.552,3.115
	c25.029,17.25,52.429,30.774,81.344,40.149c4.263,1.511,7.11,5.546,7.104,10.069c0.003-4.515,2.848-8.54,7.104-10.048
	c28.915-9.376,56.315-22.9,81.344-40.149c3.093-3.123,7.785-4.03,11.819-2.283c1.37,0.589,2.604,1.453,3.627,2.539
	c13.342-57.38-22.357-114.711-79.736-128.053s-114.711,22.357-128.053,79.736c-1.799,7.736-2.728,15.649-2.77,23.592
	c-0.004,8.313,0.97,16.597,2.901,24.683c0.985-1.061,2.175-1.91,3.499-2.496C157.12,149.685,158.573,149.395,160.039,149.412z"/>
<g>
</g>
<g>
</g>
<g>
</g>
<g>
</g>
<g>
</g>
<g>
</g>
<g>
</g>
<g>
</g>
<g>
</g>
<g>
</g>
<g>
</g>
<g>
</g>
<g>
</g>
<g>
</g>
<g>
</g>
</svg>
