<?xml version="1.0" encoding="iso-8859-1"?>
<!-- Generator: Adobe Illustrator 19.0.0, SVG Export Plug-In . SVG Version: 6.00 Build 0)  -->
<svg version="1.1" id="Capa_1" xmlns="http://www.w3.org/2000/svg" xmlns:xlink="http://www.w3.org/1999/xlink" x="0px" y="0px"
	 viewBox="0 0 512.154 512.154" style="enable-background:new 0 0 512.154 512.154;" xml:space="preserve">
<path style="fill:#FFC107;" d="M383.961,105.233C369.309,45.738,317.273,2.963,256.067,0.102
	c-61.206,2.861-113.242,45.635-127.893,105.131c-0.125,0.927-0.125,1.867,0,2.795l1.28,10.88c0.263,2.184,1.194,4.233,2.667,5.867
	c12.014,15.051,30.031,24.068,49.28,24.661c9.164-0.319,18.028,3.29,24.363,9.92c12.929,18.898,19.361,41.489,18.325,64.363
	c-0.097,2.556,0.729,5.063,2.325,7.061c7.351,8.88,18.135,14.21,29.653,14.656c11.526-0.44,22.319-5.771,29.675-14.656
	c1.602-2.004,2.427-4.519,2.325-7.083c-1.089-22.838,5.292-45.41,18.176-64.299c6.365-6.668,15.279-10.294,24.491-9.963
	c19.264-0.581,37.299-9.599,49.323-24.661c1.473-1.634,2.404-3.683,2.667-5.867l1.28-10.88
	C384.115,107.098,384.1,106.158,383.961,105.233z"/>
<path style="fill:#FFE082;" d="M320.067,213.436h-42.667c-3.246-0.002-6.316,1.474-8.341,4.011
	c-3.33,3.786-7.974,6.165-12.992,6.656c-5.027-0.461-9.681-2.846-12.992-6.656c-2.025-2.536-5.095-4.013-8.341-4.011h-42.667
	c-26.837,0-42.667,20.971-43.413,59.264l0.853,6.187c0.096,0.727,0.268,1.442,0.512,2.133
	c11.691,32.853,49.579,81.749,106.048,81.749s94.357-48.896,106.048-81.749c0.244-0.691,0.416-1.406,0.512-2.133l0.853-6.187
	c0.047-0.568,0.047-1.139,0-1.707C362.734,234.406,346.905,213.436,320.067,213.436z"/>
<g>
	<path style="fill:#455A64;" d="M416.963,0.102c-5.565-0.552-10.589,3.347-11.435,8.875c-0.128,0.725-11.563,67.925-41.344,101.547
		c-8.013,10.506-20.254,16.938-33.451,17.579c-15.041-0.366-29.538,5.639-39.915,16.533c-25.877,26.965-24.085,77.739-24.085,79.893
		c0.229,5.724,4.938,10.245,10.667,10.24h42.667c14.187,0,21.653,12.352,22.187,36.715c0.12,5.046-0.13,10.094-0.747,15.104
		c-0.649,4.526,1.659,8.963,5.739,11.029c1.492,0.765,3.145,1.16,4.821,1.152c2.795-0.006,5.476-1.109,7.467-3.072
		c18.621-19.71,33.769-42.431,44.8-67.2c21.291-46.741,22.4-210.709,22.4-217.728C426.754,5.211,422.502,0.569,416.963,0.102z"/>
	<path style="fill:#455A64;" d="M221.145,144.572c-10.33-10.853-24.765-16.835-39.744-16.469
		c-13.175-0.642-25.396-7.058-33.408-17.536C118.233,77.052,106.734,9.681,106.585,9.02c-0.982-5.809-6.487-9.721-12.296-8.739
		c-5.121,0.866-8.874,5.295-8.888,10.488c0,6.955,1.109,170.923,22.272,217.6c11.031,24.769,26.179,47.491,44.8,67.2
		c2.001,2.041,4.737,3.194,7.595,3.2c1.678,0.002,3.332-0.401,4.821-1.173c4.079-2.066,6.388-6.503,5.739-11.029
		c-0.616-5.003-0.866-10.044-0.747-15.083c0.533-24.363,8-36.715,22.187-36.715h42.667c5.736,0.004,10.449-4.529,10.667-10.261
		C245.401,222.353,247.065,171.494,221.145,144.572z"/>
</g>
<g>
	<path style="fill:#FFC107;" d="M365.998,336.508c-4.342-2.546-9.873-1.71-13.269,2.005c-24.327,28.177-59.445,44.74-96.661,45.589
		c-37.22-0.854-72.338-17.425-96.661-45.611c-3.972-4.35-10.719-4.657-15.069-0.685c-3.105,2.835-4.255,7.231-2.936,11.224
		l51.2,155.733c1.438,4.378,5.525,7.338,10.133,7.339h106.667c4.608,0,8.696-2.96,10.133-7.339l51.2-155.733
		C372.298,344.262,370.326,339.048,365.998,336.508z"/>
	<path style="fill:#FFC107;" d="M104.942,495.526l-60.587-90.88c-1.908-2.872-5.087-4.644-8.533-4.757
		c-3.457-0.044-6.734,1.536-8.853,4.267C9.474,427.803,0.044,456.447,0.067,485.862v15.573c0,5.891,4.776,10.667,10.667,10.667
		h85.333c5.891-0.003,10.664-4.781,10.661-10.672C106.728,499.329,106.106,497.275,104.942,495.526z"/>
	<path style="fill:#FFC107;" d="M485.251,404.241c-2.015-2.857-5.363-4.471-8.853-4.267c-3.446,0.113-6.625,1.886-8.533,4.757
		l-60.587,90.88c-3.217,4.935-1.824,11.544,3.111,14.761c1.691,1.102,3.66,1.702,5.679,1.73h85.333
		c5.891,0,10.667-4.776,10.667-10.667v-15.573C512.098,456.486,502.698,427.876,485.251,404.241z"/>
</g>
<g>
	<path style="fill:#455A64;" d="M212.867,498.108l-51.2-155.733c-1.688-5.144-6.962-8.207-12.267-7.125l-140.8,27.733
		c-5.779,1.142-9.538,6.753-8.396,12.532c0.272,1.376,0.813,2.685,1.591,3.852l85.333,128c1.994,2.981,5.352,4.76,8.939,4.736
		h106.667c5.891,0,10.666-4.776,10.666-10.668C213.4,500.305,213.22,499.181,212.867,498.108z"/>
	<path style="fill:#455A64;" d="M511.235,369.34c-1.36-3.302-4.283-5.705-7.787-6.4l-140.715-27.691
		c-5.283-1.046-10.517,2.01-12.203,7.125l-51.2,155.733c-1.838,5.597,1.209,11.624,6.806,13.462
		c1.053,0.346,2.155,0.526,3.263,0.532h106.667c3.568-0.002,6.898-1.787,8.875-4.757l85.333-128
		C512.245,376.379,512.605,372.626,511.235,369.34z"/>
</g>
<g>
	<path style="fill:#FAFAFA;" d="M320.067,202.769h-21.333c-5.891,0-10.666-4.776-10.666-10.667c0-4.036,2.279-7.727,5.887-9.535
		l42.667-21.333c5.272-2.633,11.681-0.494,14.315,4.779c2.633,5.272,0.494,11.681-4.779,14.315l0,0l-16.107,8.064
		c0.45,1.186,0.681,2.444,0.683,3.712C330.734,197.993,325.958,202.769,320.067,202.769z"/>
	<path style="fill:#FAFAFA;" d="M213.401,202.769h-21.333c-5.891,0-10.667-4.776-10.667-10.667v-4.075l-15.445-7.701
		c-5.272-2.633-7.412-9.042-4.779-14.315c2.633-5.272,9.042-7.412,14.315-4.779l0,0l21.12,10.667l0.405,0.213l21.141,10.667
		c5.153,2.855,7.016,9.346,4.162,14.5C220.512,200.543,217.129,202.625,213.401,202.769z"/>
</g>
<path style="fill:#455A64;" d="M277.401,298.769h-42.667c-5.891,0-10.667-4.776-10.667-10.667c0-5.891,4.776-10.667,10.667-10.667
	h42.667c5.891,0,10.667,4.776,10.667,10.667C288.067,293.993,283.292,298.769,277.401,298.769z"/>
<path d="M256.067,362.769c-56.661,0-94.485-48.917-106.069-81.792c-2.083-5.51,0.695-11.666,6.205-13.75
	c5.51-2.083,11.666,0.695,13.75,6.205c0.058,0.153,0.112,0.307,0.163,0.462c9.152,26.112,40.683,67.541,85.952,67.541
	c5.891,0,10.667,4.776,10.667,10.667C266.734,357.993,261.958,362.769,256.067,362.769z"/>
<path d="M138.734,117.436c-0.519,0.03-1.039,0.03-1.557,0c-5.825-0.857-9.854-6.27-9.003-12.096
	C142.779,45.798,194.828,2.97,256.067,0.102c5.891,0,10.667,4.776,10.667,10.667s-4.776,10.667-10.667,10.667
	c-50.622,2.846-93.689,37.885-106.773,86.869C148.531,113.549,144.034,117.438,138.734,117.436z"/>
<path d="M320.067,202.769h-21.333c-5.891,0-10.666-4.776-10.666-10.667c0-4.036,2.279-7.727,5.887-9.535l42.667-21.333
	c5.272-2.633,11.681-0.494,14.315,4.779c2.633,5.272,0.494,11.681-4.779,14.315l0,0l-16.107,8.064
	c0.45,1.186,0.681,2.444,0.683,3.712C330.734,197.993,325.958,202.769,320.067,202.769z"/>
<path d="M213.401,202.769h-21.333c-5.891,0-10.667-4.776-10.667-10.667v-4.075l-15.445-7.701c-5.272-2.633-7.412-9.042-4.779-14.315
	c2.633-5.272,9.042-7.412,14.315-4.779l0,0l21.12,10.667l0.405,0.213l21.141,10.667c5.153,2.855,7.016,9.346,4.162,14.5
	C220.512,200.543,217.129,202.625,213.401,202.769z"/>
<path d="M256.067,362.769c-5.891,0-10.667-4.776-10.667-10.667c0-5.891,4.776-10.667,10.667-10.667
	c45.269,0,76.8-41.429,85.931-67.541c2.083-5.51,8.239-8.289,13.749-6.205c5.333,2.016,8.137,7.869,6.368,13.288
	C350.553,313.852,312.729,362.769,256.067,362.769z"/>
<path d="M373.401,117.436c-5.291-0.008-9.777-3.894-10.539-9.131c-13.087-48.991-56.165-84.032-106.795-86.869
	c-5.891,0-10.667-4.776-10.667-10.667s4.776-10.667,10.667-10.667c61.209,2.854,113.248,45.631,127.893,105.131
	c0.852,5.826-3.178,11.239-9.003,12.096C374.441,117.395,373.921,117.43,373.401,117.436z"/>
<path d="M352.067,298.769c-5.891,0.055-10.711-4.676-10.765-10.567c-0.005-0.518,0.028-1.037,0.099-1.55
	c2.754-15.859-0.009-32.182-7.829-46.251c-3.404-3.843-8.378-5.918-13.504-5.632h-42.667c-5.728,0.005-10.438-4.516-10.667-10.24
	c0-2.133-1.771-52.949,24.149-79.893c10.362-10.878,24.831-16.881,39.851-16.533c45.013,0,69.269-85.952,74.816-119.083
	c0.982-5.809,6.487-9.721,12.296-8.739c5.121,0.866,8.874,5.295,8.888,10.488c0,6.933-1.131,170.795-22.272,217.6
	c-11.039,24.765-26.186,47.485-44.8,67.2C357.661,297.61,354.925,298.763,352.067,298.769z M288.217,213.436h31.851
	c11.344-0.32,22.239,4.435,29.717,12.971c7.238,9.224,11.68,20.329,12.8,32c8.711-12.168,16.213-25.158,22.4-38.784
	c11.684-42.859,17.744-87.055,18.027-131.477c-14.912,31.744-38.037,61.291-72.277,61.291c-9.209-0.325-18.116,3.309-24.469,9.984
	c-11.599,15.631-17.913,34.552-18.027,54.016H288.217z"/>
<path d="M160.067,298.769c-2.803-0.001-5.492-1.104-7.488-3.072c-18.663-19.706-33.847-42.436-44.907-67.221
	C86.51,181.628,85.401,17.766,85.401,10.769c0.08-5.89,4.921-10.6,10.811-10.52c5.105,0.07,9.444,3.747,10.351,8.771
	c5.547,33.131,29.803,119.083,74.837,119.083c15.016-0.353,29.485,5.642,39.851,16.512c25.856,26.944,24.149,77.76,24.149,79.915
	c-0.229,5.724-4.938,10.245-10.667,10.24h-42.667c-5.173-0.321-10.204,1.766-13.632,5.653c-7.729,14.093-10.479,30.38-7.808,46.229
	c0.801,5.836-3.281,11.217-9.117,12.018C161.032,298.736,160.55,298.769,160.067,298.769z M109.059,88.23
	c0.283,44.422,6.343,88.619,18.027,131.477c6.16,13.623,13.633,26.612,22.315,38.784c1.12-11.671,5.562-22.776,12.8-32
	c7.497-8.606,18.458-13.397,29.867-13.056h31.787c-0.031-19.487-6.345-38.445-18.005-54.059
	c-6.357-6.651-15.253-10.268-24.448-9.941C147.118,149.436,124.014,119.889,109.059,88.23z"/>
<path d="M277.401,298.769h-42.667c-5.891,0-10.667-4.776-10.667-10.667c0-5.891,4.776-10.667,10.667-10.667h42.667
	c5.891,0,10.667,4.776,10.667,10.667C288.067,293.993,283.292,298.769,277.401,298.769z"/>
<path d="M309.401,512.102H202.734c-4.608,0-8.696-2.96-10.133-7.339l-51.2-155.733c-1.848-5.594,1.188-11.626,6.782-13.475
	c3.993-1.319,8.388-0.17,11.224,2.936c24.318,28.192,59.44,44.764,96.661,45.611c37.201-0.831,72.311-17.371,96.64-45.525
	c3.972-4.35,10.719-4.657,15.069-0.685c3.105,2.835,4.255,7.231,2.936,11.224l-51.2,155.733
	C318.048,509.186,313.979,512.105,309.401,512.102z M210.457,490.769h91.221l36.672-111.552
	c-49.541,34.171-115.045,34.171-164.587,0L210.457,490.769z"/>
<path d="M96.067,512.102H10.734c-5.891,0-10.667-4.776-10.667-10.667v-15.659c-0.027-29.362,9.323-57.966,26.688-81.643
	c2.084-2.787,5.373-4.412,8.853-4.373c3.492,0.072,6.727,1.849,8.661,4.757l60.672,91.029c3.252,4.912,1.906,11.53-3.006,14.782
	C100.195,511.482,98.155,512.099,96.067,512.102z M21.401,490.769h54.741l-40.533-60.8c-9.347,17.115-14.233,36.307-14.208,55.808
	V490.769z"/>
<path d="M501.401,512.102h-85.333c-5.891-0.003-10.664-4.781-10.661-10.672c0.001-2.101,0.623-4.155,1.786-5.904l60.672-91.029
	c1.934-2.908,5.169-4.685,8.661-4.757c3.457,0.058,6.706,1.663,8.853,4.373c17.369,23.683,26.72,52.295,26.688,81.664v15.659
	C512.067,507.327,507.292,512.102,501.401,512.102z M435.993,490.769h54.741v-4.992c0.022-19.493-4.864-38.679-14.208-55.787
	L435.993,490.769z"/>
<path d="M202.734,512.102H96.067c-3.568-0.002-6.898-1.787-8.875-4.757l-85.333-128c-3.265-4.903-1.937-11.525,2.966-14.79
	c1.145-0.763,2.427-1.297,3.775-1.572l140.8-27.733c5.276-1.034,10.497,2.02,12.181,7.125l51.2,155.733
	c1.838,5.597-1.209,11.624-6.806,13.462C204.93,511.914,203.836,512.093,202.734,512.102z M101.785,490.769h86.208l-43.627-132.693
	L28.483,380.838L101.785,490.769z"/>
<path d="M416.067,512.102H309.401c-5.891,0-10.666-4.776-10.666-10.668c0-1.13,0.18-2.253,0.532-3.327l51.2-155.733
	c1.722-5.11,6.986-8.131,12.267-7.04l140.8,27.733c5.781,1.132,9.551,6.736,8.419,12.517c-0.27,1.381-0.812,2.696-1.592,3.867
	l-85.333,128C423.01,510.407,419.645,512.153,416.067,512.102z M324.142,490.769h86.229l73.301-109.931l-115.904-22.763
	L324.142,490.769z"/>
<path d="M256.067,245.436c-11.55-0.412-22.37-5.756-29.717-14.677c-3.688-4.595-2.952-11.31,1.643-14.997
	c4.595-3.688,11.31-2.952,14.997,1.643c3.317,3.855,8.011,6.259,13.077,6.699c5.027-0.422,9.687-2.805,12.971-6.635
	c3.658-4.619,10.368-5.397,14.987-1.739c4.619,3.658,5.397,10.368,1.739,14.987l0,0C278.436,239.656,267.62,245.018,256.067,245.436
	z"/>
<g>
</g>
<g>
</g>
<g>
</g>
<g>
</g>
<g>
</g>
<g>
</g>
<g>
</g>
<g>
</g>
<g>
</g>
<g>
</g>
<g>
</g>
<g>
</g>
<g>
</g>
<g>
</g>
<g>
</g>
</svg>
