<?xml version="1.0" encoding="iso-8859-1"?>
<!-- Generator: Adobe Illustrator 19.0.0, SVG Export Plug-In . SVG Version: 6.00 Build 0)  -->
<svg version="1.1" id="Capa_1" xmlns="http://www.w3.org/2000/svg" xmlns:xlink="http://www.w3.org/1999/xlink" x="0px" y="0px"
	 viewBox="0 0 512.038 512.038" style="enable-background:new 0 0 512.038 512.038;" xml:space="preserve">
<path style="fill:#455A64;" d="M506.835,406.886l-101.867-61.12L384.019,10.043c-0.367-5.88-5.431-10.349-11.31-9.982
	c-2.599,0.162-5.048,1.269-6.887,3.112l-36.715,36.693c-45.602-24.671-100.574-24.671-146.176,0L146.238,3.152
	c-4.15-4.181-10.904-4.206-15.085-0.056c-1.864,1.851-2.98,4.324-3.134,6.946L107.07,345.787L5.203,406.886
	c-3.217,1.927-5.185,5.402-5.184,9.152v85.333c0,5.891,4.776,10.667,10.667,10.667h490.667c5.891,0,10.667-4.776,10.667-10.667
	v-85.333C512.02,412.288,510.051,408.813,506.835,406.886z"/>
<path style="fill:#FFE082;" d="M341.032,221.456c-1.425-5.716-7.213-9.195-12.93-7.771c-0.114,0.028-0.227,0.059-0.34,0.091
	l-71.744,20.501l-71.744-20.501c-2.778-0.775-5.751-0.407-8.256,1.024c-2.504,1.447-4.314,3.849-5.013,6.656l-21.333,85.333
	c-1.089,4.373,0.687,8.958,4.437,11.456l64,42.667c1.75,1.167,3.806,1.79,5.909,1.792h64c2.103-0.002,4.159-0.625,5.909-1.792
	l64-42.667c3.75-2.498,5.527-7.083,4.437-11.456L341.032,221.456z"/>
<path style="fill:#455A64;" d="M277.352,298.704h-42.667c-5.891,0-10.667-4.776-10.667-10.667s4.776-10.667,10.667-10.667h42.667
	c5.891,0,10.667,4.776,10.667,10.667S283.243,298.704,277.352,298.704z"/>
<g>
	<path style="fill:#37474F;" d="M309.352,192.038h-21.333c-5.891,0-10.666-4.776-10.666-10.667c0-4.036,2.279-7.727,5.887-9.535
		l42.667-21.333c5.272-2.633,11.681-0.494,14.315,4.779c2.633,5.272,0.494,11.681-4.779,14.315l-16.107,8.043
		c2.062,5.518-0.74,11.663-6.259,13.725C311.886,191.808,310.624,192.037,309.352,192.038z"/>
	<path style="fill:#37474F;" d="M224.019,192.038h-21.333c-5.891,0-10.667-4.776-10.667-10.667v-4.075l-15.445-7.723
		c-5.272-2.633-7.412-9.042-4.779-14.315s9.042-7.412,14.315-4.779l21.12,10.667l0.405,0.192l21.141,10.667
		c5.175,2.814,7.089,9.291,4.275,14.467C231.242,189.799,227.804,191.918,224.019,192.038z"/>
</g>
<path d="M277.352,298.704h-42.667c-5.891,0-10.667-4.776-10.667-10.667s4.776-10.667,10.667-10.667h42.667
	c5.891,0,10.667,4.776,10.667,10.667S283.243,298.704,277.352,298.704z"/>
<path d="M501.352,512.038H10.686c-5.891,0-10.667-4.776-10.667-10.667v-85.333c-0.001-3.75,1.967-7.225,5.184-9.152l101.867-61.12
	l20.949-335.723c0.345-5.881,5.391-10.369,11.272-10.024c2.622,0.154,5.096,1.27,6.946,3.134l36.693,36.715
	c45.602-24.671,100.574-24.671,146.176,0L365.8,3.152c4.15-4.181,10.904-4.206,15.085-0.056c1.864,1.851,2.98,4.324,3.134,6.946
	l20.971,335.744l101.867,61.12c3.202,1.929,5.16,5.393,5.163,9.131v85.333C512.019,507.262,507.243,512.038,501.352,512.038z
	 M21.352,490.704h469.333v-68.629L389.203,361.19c-3.027-1.815-4.959-5.01-5.163-8.533L364.179,34.96l-25.941,25.963
	c-3.7,3.7-9.537,4.17-13.781,1.109c-41.984-25.75-94.869-25.75-136.853,0c-4.244,3.06-10.081,2.591-13.781-1.109L147.859,34.96
	l-19.84,317.739c-0.203,3.523-2.136,6.718-5.163,8.533L21.352,422.075V490.704z"/>
<path d="M288.019,362.704h-64c-2.103-0.002-4.159-0.625-5.909-1.792l-64-42.667c-3.75-2.498-5.527-7.083-4.437-11.456l21.333-85.333
	c0.7-2.807,2.509-5.209,5.013-6.656c2.505-1.431,5.478-1.799,8.256-1.024l71.744,20.501l71.744-20.501
	c5.666-1.612,11.566,1.674,13.179,7.34c0.032,0.113,0.062,0.226,0.091,0.34l21.333,85.333c1.089,4.373-0.687,8.958-4.437,11.456
	l-64,42.667C292.178,362.079,290.122,362.703,288.019,362.704z M227.24,341.371h57.6l55.061-36.715l-16.853-67.349l-64,18.304
	c-1.91,0.544-3.935,0.544-5.845,0l-64-18.304l-16.853,67.349L227.24,341.371z"/>
<path d="M309.352,192.038h-21.333c-5.891,0-10.666-4.776-10.666-10.667c0-4.036,2.279-7.727,5.887-9.535l42.667-21.333
	c5.272-2.633,11.681-0.494,14.315,4.779c2.633,5.272,0.494,11.681-4.779,14.315l-16.107,8.043c2.062,5.518-0.74,11.663-6.259,13.725
	C311.886,191.808,310.624,192.037,309.352,192.038z"/>
<path d="M224.019,192.038h-21.333c-5.891,0-10.667-4.776-10.667-10.667v-4.075l-15.445-7.723c-5.272-2.633-7.412-9.042-4.779-14.315
	s9.042-7.412,14.315-4.779l21.12,10.667l0.405,0.192l21.141,10.667c5.175,2.814,7.089,9.291,4.275,14.467
	C231.242,189.799,227.804,191.918,224.019,192.038z"/>
<g>
</g>
<g>
</g>
<g>
</g>
<g>
</g>
<g>
</g>
<g>
</g>
<g>
</g>
<g>
</g>
<g>
</g>
<g>
</g>
<g>
</g>
<g>
</g>
<g>
</g>
<g>
</g>
<g>
</g>
</svg>
