<?xml version="1.0" encoding="iso-8859-1"?>
<!-- Generator: Adobe Illustrator 19.0.0, SVG Export Plug-In . SVG Version: 6.00 Build 0)  -->
<svg version="1.1" id="Capa_1" xmlns="http://www.w3.org/2000/svg" xmlns:xlink="http://www.w3.org/1999/xlink" x="0px" y="0px"
	 viewBox="0 0 512.016 512.016" style="enable-background:new 0 0 512.016 512.016;" xml:space="preserve">
<path style="fill:#388E3C;" d="M387.699,298.682l-50.347-40.32c-1.894-1.519-4.249-2.347-6.677-2.347H181.341
	c-2.425-0.007-4.781,0.814-6.677,2.325l-50.347,40.341c-4.596,3.685-5.334,10.399-1.649,14.995c1.223,1.525,2.841,2.684,4.678,3.352
	c1.728,0.619,3.563,1.173,5.504,1.728l1.067,0.149c0.889,0.421,1.8,0.792,2.731,1.109c1.583,0.54,3.1,1.255,4.523,2.133l0,0
	c0.427,0.256,0.832,0.469,1.28,0.683c25.451,11.989,87.339,39.851,113.557,39.851c22.805,0,72.789-20.843,110.699-38.4
	c0.405-0.192,3.541-1.877,3.925-2.133c1.832-1.142,3.794-2.059,5.845-2.731l2.688-0.789c1.941-0.555,3.776-1.109,5.504-1.728
	c5.537-2.012,8.394-8.132,6.381-13.669c-0.668-1.837-1.827-3.455-3.352-4.678L387.699,298.682z"/>
<path style="fill:#FFC107;" d="M418.803,270.778c-9.015-30.625-35.164-53.108-66.795-57.429h-192
	c-31.631,4.321-57.78,26.804-66.795,57.429c-1.664,9.643-1.664,33.472,34.133,46.251c3.479,1.243,7.352,0.597,10.24-1.707
	l47.509-37.973H326.92l47.445,37.973c2.888,2.304,6.761,2.949,10.24,1.707C420.467,304.272,420.467,280.442,418.803,270.778z"/>
<path style="fill:#455A64;" d="M371.592,309.541c-2.697-4.887-8.706-6.869-13.781-4.544
	c-31.991,16.992-66.285,29.238-101.803,36.352c-36.41-7.758-71.583-20.477-104.533-37.803c-5.346-2.474-11.686-0.146-14.16,5.2
	c-2.221,4.8-0.59,10.504,3.835,13.402c27.072,17.493,77.803,93.163,95.104,120.853c1.834,2.931,4.975,4.792,8.427,4.992h0.661
	c3.242,0.007,6.312-1.461,8.341-3.989c0.768-0.96,77.44-96.448,114.368-120.384C372.736,320.579,374.28,314.438,371.592,309.541z"/>
<path style="fill:#4CAF50;" d="M478.771,73.808c-3.437-6.949-10.952-10.9-18.624-9.792c-24.057,3.205-47.178,11.402-67.883,24.064
	c-6.016,3.093-13.525,6.912-18.901,9.216c-5.327-20.591-17.266-38.863-33.984-52.011c-12.624-23.197-34.743-39.73-60.565-45.269
	c-7.848-0.223-15.568,2.014-22.08,6.4c-6.502-4.389-14.217-6.628-22.059-6.4c-26.26,5.405-48.889,21.925-62.037,45.291
	c-16.334,13.222-27.815,31.493-32.64,51.947c-5.355-2.283-12.8-6.101-18.795-9.173C100.505,75.42,77.391,67.224,53.341,64.016
	c-7.672-1.108-15.187,2.843-18.624,9.792c-5.568,12.8,8.277,27.563,27.435,47.851c8.747,8.329,16.526,17.618,23.189,27.691
	c0,20.032,39.147,45.525,65.323,60.331c4.846,24.871,17.067,47.707,35.072,65.536c20.593,14.59,45.045,22.755,70.272,23.467
	c25.686-0.687,50.616-8.842,71.744-23.467c18.021-17.851,30.244-40.719,35.072-65.621c26.197-14.805,65.344-40.277,65.301-59.733
	c6.493-10.372,14.294-19.865,23.211-28.245C470.515,101.37,484.275,86.693,478.771,73.808z"/>
<g>
	<path style="fill:#455A64;" d="M224.008,170.682h-21.333c-5.891,0-10.667-4.776-10.667-10.667c0-5.891,4.776-10.667,10.667-10.667
		h21.333c5.891,0,10.667,4.776,10.667,10.667C234.675,165.907,229.899,170.682,224.008,170.682z"/>
	<path style="fill:#455A64;" d="M309.341,170.682h-21.333c-5.891,0-10.667-4.776-10.667-10.667c0-5.891,4.776-10.667,10.667-10.667
		h21.333c5.891,0,10.667,4.776,10.667,10.667C320.008,165.907,315.232,170.682,309.341,170.682z"/>
</g>
<path style="fill:#388E3C;" d="M202.675,106.682c-4.896-0.001-9.162-3.335-10.347-8.085L181.661,55.93
	c-1.426-5.72,2.056-11.513,7.776-12.939c5.72-1.426,11.513,2.056,12.939,7.776l10.667,42.667c1.424,5.714-2.052,11.501-7.765,12.928
	C204.426,106.573,203.552,106.68,202.675,106.682z"/>
<path style="fill:#455A64;" d="M160.008,160.016c-5.891,0.011-10.675-4.757-10.686-10.648c-0.005-2.84,1.123-5.565,3.134-7.571
	c36.864-36.843,67.115-43.989,89.749-21.333c4.237,4.092,4.355,10.845,0.262,15.083s-10.845,4.355-15.083,0.262
	c-0.089-0.086-0.176-0.173-0.262-0.262c-6.55-7.116-17.096-8.874-25.6-4.267c-12.854,6.292-24.389,14.981-33.984,25.6
	C165.543,158.882,162.834,160.01,160.008,160.016z"/>
<path style="fill:#388E3C;" d="M309.341,106.682c-0.99,0.001-1.974-0.143-2.923-0.427c-5.657-1.613-8.941-7.502-7.339-13.163
	l12.139-42.667c1.513-5.608,7.285-8.928,12.894-7.415c0.09,0.024,0.18,0.05,0.269,0.076c5.657,1.613,8.941,7.502,7.339,13.163
	l-12.139,42.667C318.285,103.502,314.106,106.671,309.341,106.682z"/>
<path style="fill:#455A64;" d="M352.008,160.016c-2.831,0.005-5.548-1.115-7.552-3.115c-9.595-10.619-21.13-19.307-33.984-25.6
	c-8.506-4.591-19.043-2.835-25.6,4.267c-4.237,4.092-10.99,3.975-15.083-0.262c-3.992-4.134-3.992-10.687,0-14.82
	c22.677-22.656,52.907-15.509,89.749,21.333c4.159,4.172,4.148,10.926-0.024,15.085C357.521,158.891,354.823,160.01,352.008,160.016
	z"/>
<path style="fill:#388E3C;" d="M256.008,117.349c-5.891,0-10.667-4.776-10.667-10.667V21.349c0-5.891,4.776-10.667,10.667-10.667
	c5.891,0,10.667,4.776,10.667,10.667v85.333C266.675,112.573,261.899,117.349,256.008,117.349z"/>
<path style="fill:#FFA000;" d="M490.248,498.405l-42.667-149.333c-0.606-2.127-1.859-4.013-3.584-5.397l-56.299-44.992
	c-2.906-2.319-6.81-2.958-10.304-1.685c-1.301,0.448-2.688,0.853-4.117,1.28l-4.053,1.323c-3.293,1.011-6.441,2.445-9.365,4.267
	c-0.96,0.469-1.92,0.981-3.349,1.856c-32,20.8-87.915,86.571-110.08,113.451c-18.453-28.352-64.32-96-93.611-114.965
	c-0.358-0.226-0.728-0.433-1.109-0.619c-3.109-1.844-6.415-3.332-9.856-4.437l-3.179-0.917c-1.429-0.427-2.837-0.811-4.117-1.28
	c-3.48-1.262-7.367-0.606-10.24,1.728l-56.32,45.013c-1.725,1.384-2.978,3.27-3.584,5.397L21.747,498.426
	c-1.614,5.666,1.67,11.567,7.336,13.181c0.952,0.271,1.936,0.408,2.926,0.408h448c5.891-0.007,10.661-4.788,10.654-10.679
	C490.661,500.345,490.522,499.358,490.248,498.405z"/>
<g>
	<path style="fill:#FFC107;" d="M160.008,512.016c-4.572,0.006-8.64-2.903-10.112-7.232
		c-11.911-35.739-25.887-70.756-41.856-104.875c-3.069-5.029-1.48-11.593,3.548-14.662c5.029-3.069,11.593-1.48,14.662,3.548
		c0.132,0.215,0.255,0.436,0.371,0.66c16.657,35.247,31.175,71.466,43.477,108.459c1.905,5.575-1.07,11.638-6.645,13.543
		c-0.004,0.001-0.008,0.003-0.011,0.004C162.334,511.827,161.175,512.014,160.008,512.016z"/>
	<path style="fill:#FFC107;" d="M352.008,512.016c-1.167-0.001-2.326-0.189-3.435-0.555c-5.577-1.899-8.558-7.958-6.66-13.535
		c0.001-0.004,0.003-0.008,0.004-0.012c12.302-36.993,26.821-73.211,43.477-108.459c2.704-5.234,9.139-7.284,14.373-4.579
		c5.234,2.704,7.284,9.139,4.579,14.373c-0.116,0.224-0.24,0.444-0.371,0.66c-15.966,34.12-29.941,69.137-41.856,104.875
		C360.648,509.113,356.58,512.022,352.008,512.016z"/>
	<path style="fill:#FFC107;" d="M245.341,512.016c-5.891,0-10.667-4.776-10.667-10.667v-64c0-5.891,4.776-10.667,10.667-10.667
		c5.891,0,10.667,4.776,10.667,10.667v64C256.008,507.24,251.232,512.016,245.341,512.016z"/>
</g>
<path d="M224.008,170.682h-21.333c-5.891,0-10.667-4.776-10.667-10.667c0-5.891,4.776-10.667,10.667-10.667h21.333
	c5.891,0,10.667,4.776,10.667,10.667C234.675,165.907,229.899,170.682,224.008,170.682z"/>
<path d="M309.341,170.682h-21.333c-5.891,0-10.667-4.776-10.667-10.667c0-5.891,4.776-10.667,10.667-10.667h21.333
	c5.891,0,10.667,4.776,10.667,10.667C320.008,165.907,315.232,170.682,309.341,170.682z"/>
<path d="M202.675,106.682c-4.896-0.001-9.162-3.335-10.347-8.085L181.661,55.93c-1.426-5.72,2.056-11.513,7.776-12.939
	c5.72-1.426,11.513,2.056,12.939,7.776l10.667,42.667c1.424,5.714-2.052,11.501-7.765,12.928
	C204.426,106.573,203.552,106.68,202.675,106.682z"/>
<path d="M160.008,160.016c-5.891,0.011-10.675-4.757-10.686-10.648c-0.005-2.84,1.123-5.565,3.134-7.571
	c36.864-36.843,67.115-43.989,89.749-21.333c4.237,4.092,4.355,10.845,0.262,15.083s-10.845,4.355-15.083,0.262
	c-0.089-0.086-0.176-0.173-0.262-0.262c-6.55-7.116-17.096-8.874-25.6-4.267c-12.854,6.292-24.389,14.981-33.984,25.6
	C165.543,158.882,162.834,160.01,160.008,160.016z"/>
<path d="M256.008,298.682c-25.227-0.711-49.679-8.877-70.272-23.467c-17.999-17.831-30.212-40.667-35.051-65.536
	c-26.197-14.805-65.344-40.299-65.344-60.331c-6.661-10.088-14.44-19.392-23.189-27.733c-19.2-20.288-33.003-34.965-27.435-47.851
	c3.45-6.932,10.962-10.864,18.624-9.749c24.057,3.205,47.178,11.402,67.883,24.064c5.973,3.072,13.44,6.869,18.795,9.173
	c4.819-20.45,16.292-38.722,32.619-51.947c13.148-23.365,35.777-39.886,62.037-45.291c7.841-0.228,15.557,2.011,22.059,6.4
	c6.512-4.386,14.232-6.623,22.08-6.4C304.64,5.544,326.767,22.07,339.4,45.264c16.706,13.16,28.63,31.439,33.941,52.032
	c5.376-2.283,12.8-6.123,18.901-9.216c20.711-12.665,43.84-20.862,67.904-24.064c7.672-1.108,15.187,2.843,18.624,9.792
	c5.568,12.8-8.277,27.563-27.435,47.851c-8.927,8.393-16.735,17.9-23.232,28.288c0,19.456-39.104,44.907-65.301,59.733
	c-4.838,24.869-17.052,47.705-35.051,65.536C306.624,289.841,281.694,297.995,256.008,298.682z M58.76,85.797
	c4.907,6.4,13.248,15.232,18.901,21.333c17.984,18.923,29.013,31.168,29.013,42.219c16.263,18.539,36.177,33.522,58.496,44.011
	c2.712,1.503,4.635,4.112,5.269,7.147c3.68,21.415,13.287,41.369,27.733,57.6c17,11.896,37.096,18.583,57.835,19.243
	c21.161-0.62,41.703-7.282,59.2-19.2c14.446-16.231,24.054-36.185,27.733-57.6c0.634-3.035,2.558-5.643,5.269-7.147
	c22.455-10.455,42.414-25.592,58.539-44.395c0-10.667,10.987-22.891,28.971-41.941c5.653-5.995,13.973-14.933,18.901-21.333
	c-18.492,4.624-36.249,11.804-52.757,21.333c-22.059,11.264-33.131,17.067-42.155,11.456c-4.098-2.527-6.538-7.048-6.4-11.861
	c-3.589-16.463-12.119-31.438-24.448-42.923c-5.076-0.145-9.073-4.378-8.928-9.454c0.009-0.313,0.034-0.625,0.075-0.936
	c-9.644-15.086-24.192-26.387-41.195-32c-9.067,0-11.328,3.84-11.563,4.267c-2.92,5.824-10.009,8.178-15.834,5.258
	c-2.447-1.227-4.391-3.267-5.5-5.77l0,0c0,0-2.283-3.755-11.243-3.755c-17.567,5.633-32.643,17.173-42.667,32.661
	c-0.013,5.549-4.522,10.037-10.072,10.024c-0.199,0-0.397-0.007-0.595-0.019c-10.741,12.098-18.1,26.815-21.333,42.667
	c0.138,4.813-2.302,9.334-6.4,11.861c-9.067,5.525-20.075-0.192-42.155-11.456C94.962,97.579,77.228,90.413,58.76,85.797z"/>
<path d="M309.341,106.682c-0.99,0.001-1.974-0.143-2.923-0.427c-5.657-1.613-8.941-7.502-7.339-13.163l12.139-42.667
	c1.513-5.608,7.285-8.928,12.894-7.415c0.09,0.024,0.18,0.05,0.269,0.076c5.657,1.613,8.941,7.502,7.339,13.163l-12.139,42.667
	C318.285,103.502,314.106,106.671,309.341,106.682z"/>
<path d="M352.008,160.016c-2.831,0.005-5.548-1.115-7.552-3.115c-9.595-10.619-21.13-19.307-33.984-25.6
	c-8.506-4.591-19.043-2.835-25.6,4.267c-4.237,4.092-10.99,3.975-15.083-0.262c-3.992-4.134-3.992-10.687,0-14.82
	c22.677-22.656,52.907-15.509,89.749,21.333c4.159,4.172,4.148,10.926-0.024,15.085C357.521,158.891,354.823,160.01,352.008,160.016
	z"/>
<path d="M256.008,117.349c-5.891,0-10.667-4.776-10.667-10.667V21.349c0-5.891,4.776-10.667,10.667-10.667
	c5.891,0,10.667,4.776,10.667,10.667v85.333C266.675,112.573,261.899,117.349,256.008,117.349z"/>
<path d="M160.008,512.016c-4.572,0.006-8.64-2.903-10.112-7.232c-11.911-35.739-25.887-70.756-41.856-104.875
	c-3.069-5.029-1.48-11.593,3.548-14.662c5.029-3.069,11.593-1.48,14.662,3.548c0.132,0.215,0.255,0.436,0.371,0.66
	c16.657,35.247,31.175,71.466,43.477,108.459c1.905,5.575-1.07,11.638-6.645,13.543c-0.004,0.001-0.008,0.003-0.011,0.004
	C162.334,511.827,161.175,512.014,160.008,512.016z"/>
<path d="M480.008,512.016h-448c-5.891-0.007-10.661-4.788-10.654-10.679c0.001-0.992,0.141-1.978,0.414-2.932l42.667-149.333
	c0.606-2.127,1.859-4.013,3.584-5.397l106.667-85.333c4.601-3.682,11.315-2.937,14.997,1.664c3.682,4.601,2.937,11.315-1.664,14.997
	l0,0l-104.021,83.2l-37.845,132.48h419.712L428.04,358.224l-104.021-83.2c-4.601-3.682-5.346-10.396-1.664-14.997
	c3.682-4.601,10.396-5.346,14.997-1.664l106.667,85.333c1.725,1.384,2.978,3.27,3.584,5.397l42.667,149.333
	c1.614,5.666-1.67,11.567-7.336,13.181C481.982,511.879,480.997,512.016,480.008,512.016z"/>
<path d="M352.008,512.016c-1.167-0.001-2.326-0.189-3.435-0.555c-5.577-1.899-8.558-7.958-6.66-13.535
	c0.001-0.004,0.003-0.008,0.004-0.012c12.302-36.993,26.821-73.211,43.477-108.459c2.704-5.234,9.139-7.284,14.373-4.579
	c5.234,2.704,7.284,9.139,4.579,14.373c-0.116,0.224-0.24,0.444-0.371,0.66c-15.966,34.12-29.941,69.137-41.856,104.875
	C360.648,509.113,356.58,512.022,352.008,512.016z"/>
<path d="M245.341,448.016h-0.619c-3.452-0.2-6.593-2.061-8.427-4.992c-29.995-48.107-81.067-118.165-100.373-123.328
	c-41.323-11.051-44.629-34.261-42.944-47.147c8.454-31.387,34.838-54.69,67.029-59.2c5.891,0,10.667,4.776,10.667,10.667
	c0,5.891-4.776,10.667-10.667,10.667c-21.457,4.298-38.963,19.768-45.867,40.533c-1.387,10.539,7.787,18.517,27.285,23.723
	c29.867,7.979,82.816,85.781,104.981,120.085c27.584-33.557,94.677-112.192,124.181-120.085
	c19.499-5.205,28.693-13.184,27.285-23.723c-6.904-20.765-24.41-36.236-45.867-40.533c-5.891,0-10.667-4.776-10.667-10.667
	c0-5.891,4.776-10.667,10.667-10.667c32.18,4.504,58.561,27.787,67.029,59.157c1.685,12.8-1.621,36.096-42.944,47.147
	c-20.992,5.611-86.251,79.253-122.432,124.352C251.641,446.536,248.58,448.011,245.341,448.016z"/>
<path d="M245.341,512.016c-5.891,0-10.667-4.776-10.667-10.667v-64c0-5.891,4.776-10.667,10.667-10.667
	c5.891,0,10.667,4.776,10.667,10.667v64C256.008,507.24,251.232,512.016,245.341,512.016z"/>
<path d="M256.008,362.682c-30.891,0-112.747-39.253-121.984-43.733c-5.302-2.568-7.518-8.949-4.949-14.251
	c2.568-5.302,8.949-7.518,14.251-4.949c23.872,11.584,90.645,41.6,112.683,41.6c22.037,0,88.811-30.016,112.683-41.6
	c5.302-2.568,11.682-0.353,14.251,4.949c2.568,5.302,0.353,11.682-4.949,14.251C368.755,323.429,286.899,362.682,256.008,362.682z"
	/>
<g>
</g>
<g>
</g>
<g>
</g>
<g>
</g>
<g>
</g>
<g>
</g>
<g>
</g>
<g>
</g>
<g>
</g>
<g>
</g>
<g>
</g>
<g>
</g>
<g>
</g>
<g>
</g>
<g>
</g>
</svg>
