<?xml version="1.0" encoding="iso-8859-1"?>
<!-- Generator: Adobe Illustrator 19.0.0, SVG Export Plug-In . SVG Version: 6.00 Build 0)  -->
<svg version="1.1" id="Capa_1" xmlns="http://www.w3.org/2000/svg" xmlns:xlink="http://www.w3.org/1999/xlink" x="0px" y="0px"
	 viewBox="0 0 512 512" style="enable-background:new 0 0 512 512;" xml:space="preserve">
<path style="fill:#FFE082;" d="M371.072,238.763c-2.022-2.586-5.122-4.097-8.405-4.096c-35.13-3.807-69.84-10.805-103.701-20.907
	c-1.93-0.557-3.979-0.557-5.909,0c-33.867,10.105-68.585,17.103-103.723,20.907c-5.891,0.005-10.663,4.784-10.658,10.675
	c0.001,0.86,0.105,1.717,0.312,2.552C156.437,318.677,201.28,362.667,256,362.667s99.563-43.989,117.013-114.773
	C373.803,244.713,373.087,241.346,371.072,238.763z"/>
<g>
	<path style="fill:#CFD8DC;" d="M127.68,136.085l-21.333-85.333c-1.436-5.713-7.232-9.181-12.945-7.745
		c-3.526,0.886-6.358,3.508-7.514,6.955l-21.333,64c-1.047,3.125-0.59,6.559,1.237,9.301l42.667,64
		c1.981,2.962,5.311,4.739,8.875,4.736c1.048,0.003,2.09-0.148,3.093-0.448c4.501-1.364,7.578-5.515,7.573-10.219v-42.667
		C128.003,137.796,127.896,136.929,127.68,136.085z"/>
	<path style="fill:#CFD8DC;" d="M447.445,113.963l-21.333-64c-1.38-4.584-5.741-7.609-10.517-7.296
		c-4.738,0.18-8.788,3.465-9.941,8.064l-21.333,85.333c-0.218,0.85-0.325,1.725-0.32,2.603v42.667
		c-0.005,4.703,3.072,8.855,7.573,10.219c1.004,0.3,2.046,0.451,3.093,0.448c3.568-0.002,6.898-1.787,8.875-4.757l42.667-64
		C448.028,120.505,448.485,117.081,447.445,113.963z"/>
</g>
<path style="fill:#0277BD;" d="M405.333,149.333C405.333,66.859,338.475,0,256,0S106.667,66.859,106.667,149.333
	c0.07,9.801,1.163,19.568,3.264,29.141c-2.22,7.87-3.319,16.015-3.264,24.192c0,30.4,13.76,53.333,33.536,53.483
	c1.989,0.25,3.99,0.392,5.995,0.427c1.717,0.033,3.432-0.161,5.099-0.576c35.472-3.718,70.524-10.717,104.704-20.907
	c34.193,10.195,69.259,17.194,104.747,20.907c4.164,0.734,8.423,0.734,12.587,0c18.24,0,32-22.933,32-53.333
	c0.055-8.177-1.044-16.322-3.264-24.192C404.17,168.901,405.264,159.134,405.333,149.333z"/>
<g>
	<path style="fill:#FAFAFA;" d="M288,149.333c-4.443,0-8.42-2.754-9.984-6.912L256,83.712l-22.016,58.709
		c-2.074,5.52-8.229,8.314-13.749,6.24c-5.52-2.074-8.314-8.229-6.24-13.749l32-85.333c2.685-5.52,9.337-7.818,14.857-5.132
		c2.237,1.088,4.044,2.895,5.132,5.132l32,85.333c2.074,5.514-0.715,11.665-6.229,13.739
		C290.554,149.102,289.282,149.333,288,149.333z"/>
	<path style="fill:#FAFAFA;" d="M277.333,128h-42.667c-5.891,0-10.667-4.776-10.667-10.667s4.776-10.667,10.667-10.667h42.667
		c5.891,0,10.667,4.776,10.667,10.667S283.224,128,277.333,128z"/>
</g>
<g>
	<path style="fill:#FFE082;" d="M192,149.333c-39.595,0-42.667,24.491-42.667,32s3.072,32,42.667,32c30.4,0,53.333-13.76,53.333-32
		S222.4,149.333,192,149.333z"/>
	<path style="fill:#FFE082;" d="M320,149.333c-30.4,0-53.333,13.76-53.333,32s22.933,32,53.333,32c39.595,0,42.667-24.491,42.667-32
		S359.595,149.333,320,149.333z"/>
</g>
<path style="fill:#0277BD;" d="M461.845,369.643l-97.835-34.133c-4.021-1.402-8.491-0.279-11.371,2.859
	C328.334,366.567,293.219,383.148,256,384c-37.202-0.825-72.314-17.366-96.64-45.525c-2.88-3.137-7.35-4.261-11.371-2.859
	l-97.835,34.133C20.165,380.172,0.046,408.421,0,440.171v61.163C0,507.224,4.776,512,10.667,512h490.667
	c5.891,0,10.667-4.776,10.667-10.667v-61.163C512,408.382,491.872,380.078,461.845,369.643z"/>
<path style="fill:#FAFAFA;" d="M340.523,475.925c-1.649-3.989-5.539-6.591-9.856-6.592h-46.741l-18.389-36.779
	c-3.144-5.272-9.966-6.998-15.239-3.855c-1.585,0.945-2.91,2.27-3.855,3.855l-18.368,36.779h-46.741
	c-5.891-0.011-10.675,4.757-10.686,10.648c-0.005,2.84,1.123,5.565,3.134,7.571l21.333,21.333c2.004,1.999,4.721,3.12,7.552,3.115
	h106.667c2.831,0.005,5.548-1.115,7.552-3.115l21.333-21.333C341.267,484.499,342.177,479.91,340.523,475.925z"/>
<path style="fill:#455A64;" d="M277.333,298.667h-42.667c-5.891,0-10.667-4.776-10.667-10.667c0-5.891,4.776-10.667,10.667-10.667
	h42.667c5.891,0,10.667,4.776,10.667,10.667C288,293.891,283.224,298.667,277.333,298.667z"/>
<path d="M256,362.667c-52.437,0-95.872-40.533-114.795-106.411h-0.917c-19.861-0.256-33.621-23.189-33.621-53.589
	c-0.043-8.161,1.048-16.289,3.243-24.149c-2.087-9.59-3.174-19.37-3.243-29.184C106.667,66.859,173.525,0,256,0
	s149.333,66.859,149.333,149.333c-0.069,9.814-1.155,19.594-3.243,29.184c2.195,7.861,3.286,15.988,3.243,24.149
	c0,30.4-13.76,53.333-32,53.333l-2.539,0.256C351.872,322.133,308.459,362.667,256,362.667z M149.333,234.667
	c4.902,0.004,9.17,3.348,10.347,8.107c15.083,60.779,51.968,98.56,96.32,98.56s81.237-37.781,96.32-98.56
	c1.419-5.718,7.205-9.202,12.922-7.783c0.29,0.072,0.576,0.156,0.859,0.252c1.144,0.004,2.287-0.096,3.413-0.299
	c1.557-0.149,2.944-0.277,3.819-0.277c2.667,0,10.667-11.349,10.667-32c0.062-6.881-0.967-13.729-3.051-20.288
	c-0.611-1.83-0.714-3.791-0.299-5.675c2.117-8.973,3.24-18.152,3.349-27.371c0-70.692-57.308-128-128-128s-128,57.308-128,128
	c0.108,9.226,1.231,18.412,3.349,27.392c0.415,1.884,0.312,3.845-0.299,5.675c-2.081,6.552-3.111,13.392-3.051,20.267
	c0,20.651,8,32,10.667,32c0.896,0,2.261,0.107,3.819,0.277l3.413,0.299C147.003,234.86,148.164,234.665,149.333,234.667z"/>
<path d="M149.333,256c-5.891,0-10.667-4.776-10.667-10.667c0-5.891,4.776-10.667,10.667-10.667
	c35.13-3.805,69.841-10.803,103.701-20.907c5.661-1.632,11.574,1.635,13.205,7.296c1.632,5.661-1.635,11.574-7.296,13.205
	C223.184,244.987,186.48,252.266,149.333,256z"/>
<path d="M362.667,256c-37.154-3.739-73.866-11.026-109.632-21.76c-5.661-1.632-8.928-7.544-7.296-13.205
	c1.632-5.661,7.544-8.928,13.205-7.296c33.867,10.112,68.584,17.117,103.723,20.928c5.891,0,10.667,4.776,10.667,10.667
	C373.333,251.224,368.558,256,362.667,256z"/>
<path d="M288,149.333c-4.443,0-8.42-2.754-9.984-6.912L256,83.712l-22.016,58.709c-2.074,5.52-8.229,8.314-13.749,6.24
	c-5.52-2.074-8.314-8.229-6.24-13.749l32-85.333c2.685-5.52,9.337-7.818,14.857-5.132c2.237,1.088,4.044,2.895,5.132,5.132
	l32,85.333c2.074,5.514-0.715,11.665-6.229,13.739C290.554,149.102,289.282,149.333,288,149.333z"/>
<path d="M277.333,128h-42.667c-5.891,0-10.667-4.776-10.667-10.667s4.776-10.667,10.667-10.667h42.667
	c5.891,0,10.667,4.776,10.667,10.667S283.224,128,277.333,128z"/>
<path d="M117.333,192c-3.575,0.005-6.915-1.781-8.896-4.757l-42.667-64c-1.827-2.743-2.284-6.176-1.237-9.301l21.333-64
	c1.872-5.586,7.918-8.596,13.503-6.724c3.447,1.155,6.069,3.987,6.955,7.514l21.333,85.333c1.293,5.747-2.317,11.455-8.065,12.748
	c-5.56,1.251-11.122-2.089-12.629-7.586L94.528,91.456l-8.085,24.299l39.765,59.733c3.228,4.928,1.851,11.539-3.077,14.768
	C121.408,191.385,119.394,191.991,117.333,192z"/>
<path d="M394.667,192c-5.891-0.003-10.664-4.781-10.661-10.672c0.001-2.101,0.623-4.155,1.786-5.904l39.765-59.733l-8.085-24.299
	l-12.459,49.792c-1.293,5.747-7.001,9.358-12.748,8.065c-5.747-1.293-9.358-7.001-8.065-12.748c0.036-0.161,0.076-0.321,0.12-0.48
	l21.333-85.333c1.169-4.582,5.216-7.847,9.941-8.021c4.771-0.315,9.129,2.7,10.517,7.275l21.333,64
	c1.047,3.125,0.59,6.559-1.237,9.301l-42.667,64C401.565,190.213,398.234,191.998,394.667,192z"/>
<path d="M192,213.333c-39.595,0-42.667-24.491-42.667-32s3.072-32,42.667-32c30.4,0,53.333,13.76,53.333,32
	S222.4,213.333,192,213.333z M192,170.667c-21.333,0-21.333,8.021-21.333,10.667S170.667,192,192,192c20.651,0,32-8,32-10.667
	C224,178.667,212.651,170.667,192,170.667z"/>
<path d="M320,213.333c-30.4,0-53.333-13.76-53.333-32s22.933-32,53.333-32c39.595,0,42.667,24.491,42.667,32
	S359.595,213.333,320,213.333z M320,170.667c-20.651,0-32,8-32,10.667C288,184,299.349,192,320,192
	c21.333,0,21.333-8.021,21.333-10.667S341.333,170.667,320,170.667z"/>
<path d="M501.333,512h-192c-5.891,0.011-10.675-4.757-10.686-10.648c-0.005-2.84,1.123-5.565,3.134-7.571l3.136-3.115h-27.584
	c-4.037,0-7.728-2.279-9.536-5.888L256,461.184l-11.797,23.573c-1.802,3.617-5.495,5.905-9.536,5.909h-27.584l3.115,3.115
	c4.171,4.16,4.179,10.914,0.019,15.085c-2.001,2.006-4.717,3.133-7.55,3.134h-192C4.776,512,0,507.224,0,501.333v-61.163
	c0-31.789,20.128-60.092,50.155-70.528l97.835-34.133c4.021-1.402,8.491-0.279,11.371,2.859
	c24.306,28.199,59.421,44.78,96.64,45.632c37.202-0.825,72.314-17.366,96.64-45.525c2.88-3.137,7.35-4.261,11.371-2.859
	l97.835,34.133c29.99,10.423,50.109,38.672,50.155,70.421v61.163C512,507.224,507.224,512,501.333,512z M335.083,490.667h155.584
	v-50.496c-0.003-22.701-14.376-42.913-35.819-50.368l-91.371-31.765c-27.99,29.602-66.743,46.655-107.477,47.296
	c-40.745-0.641-79.507-17.702-107.499-47.317l-91.349,31.765c-21.45,7.458-35.825,27.68-35.819,50.389v50.496h155.584l-3.115-3.115
	c-4.171-4.16-4.179-10.914-0.019-15.085c2.001-2.006,4.717-3.133,7.55-3.134h46.741l18.389-36.779
	c3.144-5.272,9.966-6.998,15.239-3.855c1.585,0.945,2.91,2.27,3.855,3.855l18.368,36.779h46.741
	c5.891-0.011,10.675,4.757,10.686,10.648c0.005,2.84-1.123,5.565-3.134,7.571L335.083,490.667z"/>
<path d="M277.333,298.667h-42.667c-5.891,0-10.667-4.776-10.667-10.667c0-5.891,4.776-10.667,10.667-10.667h42.667
	c5.891,0,10.667,4.776,10.667,10.667C288,293.891,283.224,298.667,277.333,298.667z"/>
<g>
</g>
<g>
</g>
<g>
</g>
<g>
</g>
<g>
</g>
<g>
</g>
<g>
</g>
<g>
</g>
<g>
</g>
<g>
</g>
<g>
</g>
<g>
</g>
<g>
</g>
<g>
</g>
<g>
</g>
</svg>
